# Blender 3.1.0
# www.blender.org
mtllib Incendiary_East.mtl
o Incendiary_East
v -0.000000 0.135454 -0.009907
v 0.007005 0.135454 -0.007005
v 0.009907 0.135454 0.000000
v 0.007005 0.135454 0.007005
v -0.000000 0.135454 0.009907
v -0.007005 0.135454 0.007005
v -0.009907 0.135454 0.000000
v -0.007005 0.135454 -0.007005
v -0.000000 0.079376 -0.009907
v 0.007005 0.079376 -0.007005
v 0.009907 0.079376 0.000000
v 0.007005 0.079376 0.007005
v -0.000000 0.079376 0.009907
v -0.007005 0.079376 0.007005
v -0.009907 0.079376 0.000000
v -0.007005 0.079376 -0.007005
v 0.020266 0.026276 -0.020266
v 0.028661 0.026276 0.000000
v 0.020266 0.026276 0.020266
v -0.000000 0.026276 0.028661
v -0.020266 0.026276 0.020266
v -0.028661 0.026276 0.000000
v -0.020266 0.026276 -0.020266
v -0.000000 0.061038 -0.028661
v -0.000000 0.070207 -0.021843
v 0.015445 0.070207 -0.015445
v 0.021843 0.070207 0.000000
v 0.015445 0.070207 0.015445
v -0.000000 0.070207 0.021843
v -0.015445 0.070207 0.015445
v -0.021843 0.070207 0.000000
v -0.015445 0.070207 -0.015445
v 0.021361 -0.091947 -0.021361
v 0.030209 -0.091947 0.000000
v 0.021361 -0.091947 0.021361
v -0.000000 -0.091947 0.030209
v -0.021361 -0.091947 0.021361
v -0.030209 -0.091947 0.000000
v -0.021361 -0.091947 -0.021361
v -0.000000 -0.091947 -0.030209
v -0.000000 -0.087865 -0.028661
v 0.020266 -0.053103 -0.020266
v 0.028661 -0.053103 0.000000
v 0.020266 -0.053103 0.020266
v -0.000000 -0.053103 0.028661
v -0.020266 -0.053103 0.020266
v -0.028661 -0.053103 0.000000
v -0.020266 -0.053103 -0.020266
v -0.000000 -0.101278 -0.027095
v -0.000000 -0.098402 -0.030209
v 0.019159 -0.101278 -0.019159
v 0.021361 -0.098402 -0.021361
v 0.027095 -0.101278 0.000000
v 0.030209 -0.098402 0.000000
v 0.019159 -0.101278 0.019159
v 0.021361 -0.098402 0.021361
v -0.000000 -0.101278 0.027095
v -0.000000 -0.098402 0.030209
v -0.019159 -0.101278 0.019159
v -0.021361 -0.098402 0.021361
v -0.027095 -0.101278 0.000000
v -0.030209 -0.098402 0.000000
v -0.019159 -0.101278 -0.019159
v -0.021361 -0.098402 -0.021361
v -0.000000 0.105454 -0.009907
v 0.007005 0.105454 -0.007005
v 0.009907 0.105454 0.000000
v 0.007005 0.105454 0.007005
v -0.000000 0.105454 0.009907
v -0.007005 0.105454 0.007005
v -0.009907 0.105454 0.000000
v -0.007005 0.105454 -0.007005
v -0.000000 0.026276 -0.028661
v 0.020266 0.061038 -0.020266
v 0.028661 0.061038 0.000000
v 0.020266 0.061038 0.020266
v -0.000000 0.061038 0.028661
v -0.020266 0.061038 0.020266
v -0.028661 0.061038 0.000000
v -0.020266 0.061038 -0.020266
v -0.020266 -0.087865 -0.020266
v -0.000000 -0.053103 -0.028661
v -0.028661 -0.087865 0.000000
v -0.020266 -0.087865 0.020266
v -0.000000 -0.087865 0.028661
v 0.020266 -0.087865 0.020266
v 0.028661 -0.087865 0.000000
v 0.020266 -0.087865 -0.020266
v -0.006348 0.138087 0.000648
v 0.006597 0.138598 0.000554
v -0.021333 -0.005533 -0.030515
v 0.014491 0.022630 -0.034394
v 0.016027 0.063905 -0.027311
v -0.021880 0.054417 -0.029473
v -0.015225 0.100212 -0.013209
v 0.018771 0.105572 -0.017005
v -0.009943 0.136461 -0.018785
v 0.011563 0.138732 -0.019412
v 0.000189 0.135989 0.002915
v -0.002620 0.033652 -0.035463
v -0.003270 0.065452 -0.031354
v 0.002386 0.103693 -0.020176
v 0.003630 0.135803 -0.023391
v 0.003919 0.136421 0.002602
v 0.016398 0.037819 -0.029842
v -0.011593 0.010415 -0.033345
v -0.025209 0.014224 -0.029155
v -0.014414 0.061290 -0.030284
v -0.006367 0.102824 -0.018421
v -0.016907 0.079539 -0.018056
v 0.021445 0.087236 -0.017005
v -0.009347 0.140971 -0.014267
v 0.007995 0.141900 -0.014307
v -0.002230 0.135566 -0.022134
v 0.018899 0.124540 -0.019183
v -0.011558 0.119322 -0.016923
v -0.009089 0.144670 -0.005307
v 0.008719 0.143008 -0.004973
v -0.003541 0.136103 0.002656
v 0.007639 0.028830 -0.034008
v 0.007477 0.065822 -0.030034
v 0.012371 0.105243 -0.020374
v 0.007819 0.137025 -0.022507
v 0.003514 0.122096 -0.021857
v 0.001478 0.141739 -0.017644
v -0.000391 0.146018 -0.006886
v -0.000390 0.084669 -0.021374
v -0.004445 0.047208 -0.034700
v 0.007962 0.045306 -0.032753
v 0.009940 0.086281 -0.021439
v 0.004657 0.145301 -0.005926
v 0.005041 0.143314 -0.016646
v -0.003831 0.121158 -0.022022
v 0.011904 0.124132 -0.023131
v -0.002865 0.142673 -0.017300
v -0.004895 0.144346 -0.006355
v -0.009874 0.082652 -0.021403
v -0.016452 0.039342 -0.031603
v -0.006635 0.132303 -0.002608
v 0.007132 0.132818 -0.002655
v -0.018012 -0.009489 -0.027355
v 0.012455 0.018280 -0.029738
v 0.016089 0.063164 -0.024195
v -0.023949 0.053270 -0.024641
v -0.012254 0.099045 -0.008755
v 0.019389 0.105711 -0.013654
v -0.006097 0.135706 -0.015215
v 0.008458 0.136047 -0.016510
v 0.000309 0.130126 -0.000248
v -0.001085 0.027980 -0.033564
v -0.003828 0.066310 -0.020167
v 0.003323 0.104070 -0.015494
v 0.004067 0.134895 -0.019582
v 0.004236 0.130577 -0.000568
v 0.018749 0.034451 -0.026696
v -0.007979 0.005823 -0.029965
v -0.023253 0.010616 -0.026094
v -0.014927 0.061306 -0.022083
v -0.003993 0.103113 -0.014289
v -0.015949 0.078649 -0.014774
v 0.023964 0.087374 -0.011848
v -0.008844 0.139251 -0.011652
v 0.008978 0.139691 -0.012266
v 0.000386 0.135277 -0.018876
v 0.016045 0.123580 -0.015201
v -0.008028 0.119247 -0.013445
v -0.007469 0.140055 -0.007133
v 0.008134 0.140004 -0.006347
v -0.003642 0.130276 -0.000544
v 0.005062 0.025099 -0.032393
v 0.007554 0.065429 -0.023412
v 0.012216 0.105367 -0.015099
v 0.005689 0.134977 -0.019237
v 0.004064 0.121322 -0.018292
v 0.002143 0.138885 -0.014922
v 0.000384 0.142927 -0.008078
v 0.000548 0.085132 -0.014807
v -0.003512 0.044543 -0.027490
v 0.007524 0.042541 -0.026892
v 0.012093 0.087719 -0.013925
v 0.004354 0.140683 -0.007770
v 0.003355 0.139286 -0.014393
v -0.001517 0.120632 -0.017841
v 0.009894 0.123591 -0.018721
v -0.000426 0.139740 -0.014116
v -0.003619 0.140366 -0.007754
v -0.008720 0.082158 -0.015124
v -0.012894 0.033278 -0.026408
vn 0.3827 -0.0000 -0.9239
vn 0.9239 -0.0000 -0.3827
vn 0.9239 -0.0000 0.3827
vn 0.3827 -0.0000 0.9239
vn -0.3827 -0.0000 0.9239
vn -0.9239 -0.0000 0.3827
vn -0.0000 1.0000 -0.0000
vn -0.9239 -0.0000 -0.3827
vn -0.3827 -0.0000 -0.9239
vn -0.2447 0.7689 -0.5907
vn -0.5907 0.7689 -0.2447
vn -0.5907 0.7689 0.2447
vn -0.2447 0.7689 0.5907
vn 0.2447 0.7689 0.5907
vn 0.5907 0.7689 0.2447
vn 0.5907 0.7689 -0.2447
vn 0.2447 0.7689 -0.5907
vn 0.3154 0.5662 -0.7615
vn 0.7615 0.5662 -0.3154
vn 0.7615 0.5662 0.3154
vn 0.3154 0.5662 0.7615
vn -0.3154 0.5662 0.7615
vn -0.7615 0.5662 0.3154
vn -0.7615 0.5662 -0.3154
vn -0.3154 0.5662 -0.7615
vn -0.0000 -1.0000 -0.0000
vn -0.3612 0.3307 -0.8719
vn -0.8719 0.3307 -0.3612
vn -0.8719 0.3307 0.3612
vn -0.3612 0.3307 0.8719
vn 0.3612 0.3307 0.8719
vn 0.8719 0.3307 0.3612
vn 0.8719 0.3307 -0.3612
vn 0.3612 0.3307 -0.8719
vn 0.2706 -0.7071 -0.6533
vn 0.6533 -0.7071 -0.2706
vn 0.6533 -0.7071 0.2706
vn 0.2706 -0.7071 0.6533
vn -0.2706 -0.7071 0.6533
vn -0.6533 -0.7071 0.2706
vn -0.6533 -0.7071 -0.2706
vn -0.2706 -0.7071 -0.6533
vn 0.1479 0.1503 -0.9775
vn 0.3676 0.1108 -0.9234
vn 0.2924 0.1525 -0.9440
vn 0.1696 0.0745 -0.9827
vn -0.0227 0.0626 -0.9978
vn 0.3976 0.0288 -0.9171
vn 0.3318 0.3228 -0.8864
vn 0.0142 0.4224 -0.9063
vn -0.0302 0.6958 0.7176
vn 0.1250 0.7081 0.6950
vn -0.2250 0.9355 -0.2725
vn 0.5131 0.8469 -0.1394
vn 0.3571 0.7996 -0.4829
vn -0.0642 0.6734 -0.7365
vn -0.0825 -0.1338 -0.9876
vn -0.5101 -0.0828 -0.8561
vn -0.4797 -0.0060 -0.8774
vn -0.0775 -0.0535 -0.9956
vn 0.4811 -0.1091 -0.8698
vn -0.0566 -0.1170 -0.9915
vn -0.0212 -0.0374 -0.9991
vn 0.5032 0.2243 -0.8346
vn -0.1073 0.9537 -0.2808
vn -0.3633 -0.8708 0.3312
vn -0.0806 0.6175 -0.7825
vn -0.3602 0.5842 -0.7273
vn 0.1454 0.7225 0.6759
vn -0.1108 0.7072 0.6983
vn -0.5235 0.2241 -0.8220
vn -0.1128 0.1232 -0.9859
vn -0.1766 0.4412 -0.8799
vn -0.5097 0.4298 -0.7453
vn -0.2698 0.0388 -0.9621
vn -0.2411 0.1309 -0.9616
vn -0.2628 0.0155 -0.9647
vn -0.2919 0.0086 -0.9564
vn 0.0843 -0.2338 0.9686
vn -0.0316 -0.1167 0.9927
vn -0.2790 -0.1676 0.9455
vn -0.1857 -0.3165 0.9303
vn -0.0730 0.0564 0.9957
vn -0.1815 0.0588 0.9816
vn -0.1087 -0.3986 0.9107
vn 0.1221 -0.3604 0.9248
vn -0.1247 -0.5436 -0.8300
vn 0.0411 -0.5345 -0.8442
vn 0.1009 -0.9841 0.1462
vn -0.0800 -0.9875 0.1357
vn -0.2236 -0.7552 0.6162
vn -0.0667 -0.7662 0.6392
vn 0.1042 0.1693 0.9800
vn 0.5327 0.0892 0.8416
vn 0.5263 0.0118 0.8502
vn 0.1213 0.0734 0.9899
vn -0.3499 0.0788 0.9335
vn -0.0404 0.1762 0.9835
vn -0.0109 0.0704 0.9975
vn -0.5446 -0.2070 0.8128
vn 0.2949 -0.8608 0.4149
vn -0.9348 -0.2871 0.2092
vn 0.0154 -0.7420 0.6703
vn 0.3004 -0.6199 0.7249
vn 0.0388 -0.5479 -0.8356
vn 0.1616 -0.5424 -0.8244
vn 0.4430 -0.2337 0.8655
vn 0.0569 -0.0144 0.9983
vn 0.0128 -0.2996 0.9540
vn 0.1435 -0.3771 0.9150
vn 0.0129 -0.0810 0.9966
vn 0.1351 -0.2196 0.9662
vn 0.4782 -0.1109 0.8712
vn 0.2309 -0.0492 0.9717
vn 0.1263 -0.4683 0.8745
vn 0.7098 -0.2982 0.6382
vn 0.9467 0.0810 -0.3117
vn 0.9537 -0.1937 -0.2301
vn 0.4017 -0.2513 -0.8806
vn 0.3517 -0.3719 -0.8591
vn -0.8613 -0.2269 0.4547
vn -0.9995 0.0317 0.0048
vn -0.9599 0.2731 -0.0630
vn -0.8919 -0.0029 0.4522
vn 0.9236 0.1656 -0.3459
vn 0.9453 -0.1197 -0.3036
vn -0.7756 -0.5381 0.3299
vn 0.9971 0.0764 0.0007
vn 0.9364 -0.0562 0.3463
vn 0.5942 0.3737 0.7123
vn 0.9468 0.1131 0.3013
vn -0.7205 0.2802 0.6343
vn -0.6743 0.1494 0.7232
vn -0.9801 -0.1732 0.0974
vn 0.9748 -0.1074 0.1953
vn -0.6856 -0.3361 0.6458
vn -0.0798 -0.4767 0.8755
vn -0.2995 -0.4723 -0.8290
vn -0.0137 -0.3486 -0.9372
vn -0.0312 0.9586 -0.2829
vt 1.000000 1.000000
vt 0.250000 0.490000
vt 0.000000 1.000000
vt 0.875000 1.000000
vt 0.419706 0.419706
vt 0.750000 1.000000
vt 0.490000 0.250000
vt 0.625000 1.000000
vt 0.419706 0.080294
vt 0.500000 1.000000
vt 0.250000 0.010000
vt 0.375000 1.000000
vt 0.080294 0.080294
vt 0.010000 0.250000
vt 0.250000 1.000000
vt 0.080294 0.419706
vt 0.125000 1.000000
vt 0.000000 0.750000
vt 1.000000 0.750000
vt 0.875000 0.750000
vt 0.750000 0.750000
vt 0.625000 0.750000
vt 0.500000 0.750000
vt 0.375000 0.750000
vt 0.250000 0.750000
vt 0.125000 0.750000
vt 0.875000 0.684484
vt 0.750000 0.684484
vt 0.625000 0.684484
vt 0.500000 0.684484
vt 0.375000 0.684484
vt 0.250000 0.684484
vt 0.125000 0.684484
vt 1.000000 0.735544
vt 0.000000 0.735544
vt 1.000000 0.742772
vt 0.000000 0.742772
vt 0.875000 0.742772
vt 0.750000 0.742772
vt 0.625000 0.742772
vt 0.500000 0.742772
vt 0.375000 0.742772
vt 0.250000 0.742772
vt 0.125000 0.742772
vt 0.875000 0.513542
vt 0.750000 0.513542
vt 0.625000 0.513542
vt 0.500000 0.513542
vt 0.375000 0.513542
vt 0.250000 0.513542
vt 0.125000 0.513542
vt 0.000000 0.513542
vt 1.000000 0.513542
vt 0.000000 0.516831
vt 1.000000 0.516831
vt 0.875000 0.567891
vt 0.750000 0.567891
vt 0.625000 0.567891
vt 0.500000 0.567891
vt 0.375000 0.567891
vt 0.250000 0.567891
vt 0.125000 0.567891
vt 0.750000 0.465264
vt 0.993558 0.500000
vt 0.006442 0.500000
vt 0.000000 0.504174
vt 1.000000 0.504174
vt 0.902215 0.402215
vt 0.881442 0.500000
vt 0.868559 0.500000
vt 0.875000 0.504174
vt 0.965264 0.250000
vt 0.756442 0.500000
vt 0.743558 0.500000
vt 0.750000 0.504174
vt 0.902215 0.097785
vt 0.631442 0.500000
vt 0.618559 0.500000
vt 0.625000 0.504174
vt 0.750000 0.034735
vt 0.506442 0.500000
vt 0.493558 0.500000
vt 0.500000 0.504174
vt 0.597785 0.097785
vt 0.381442 0.500000
vt 0.368558 0.500000
vt 0.375000 0.504174
vt 0.534735 0.250000
vt 0.256442 0.500000
vt 0.243558 0.500000
vt 0.250000 0.504174
vt 0.597785 0.402215
vt 0.131442 0.500000
vt 0.118558 0.500000
vt 0.125000 0.504174
vt 0.000000 0.866259
vt 1.000000 0.866259
vt 0.875000 0.866259
vt 0.750000 0.866259
vt 0.625000 0.866259
vt 0.500000 0.866259
vt 0.375000 0.866259
vt 0.250000 0.866259
vt 0.125000 0.866259
vt 1.000000 0.684484
vt 0.000000 0.684484
vt 0.875000 0.735544
vt 0.750000 0.735544
vt 0.625000 0.735544
vt 0.500000 0.735544
vt 0.375000 0.735544
vt 0.250000 0.735544
vt 0.125000 0.735544
vt 0.125000 0.516831
vt 0.000000 0.567891
vt 1.000000 0.567891
vt 0.250000 0.516831
vt 0.375000 0.516831
vt 0.500000 0.516831
vt 0.625000 0.516831
vt 0.750000 0.516831
vt 0.875000 0.516831
vt 0.000000 0.000000
vt 1.000000 0.000000
vt 0.000000 1.000000
vt 1.000000 1.000000
vt 1.000000 0.750000
vt 0.000000 0.750000
vt 0.000000 0.527869
vt 1.000000 0.527869
vt 0.000000 0.300357
vt 1.000000 0.300357
vt 0.500000 0.000000
vt 0.500000 1.000000
vt 0.500000 0.754645
vt 0.500000 0.526972
vt 0.500000 0.311600
vt 0.750000 0.000000
vt 1.000000 0.875000
vt 0.250000 1.000000
vt 0.000000 0.875000
vt 0.250000 0.754258
vt 0.250000 0.527047
vt 0.000000 0.638935
vt 1.000000 0.638935
vt 0.000000 0.220331
vt 1.000000 0.220331
vt 0.250000 0.310663
vt 1.000000 0.414113
vt 0.000000 0.414113
vt 0.000000 0.070153
vt 1.000000 0.070153
vt 0.250000 0.000000
vt 0.750000 1.000000
vt 0.750000 0.754258
vt 0.750000 0.527047
vt 0.750000 0.310663
vt 0.500000 0.415406
vt 0.500000 0.222148
vt 0.500000 0.070564
vt 0.500000 0.639403
vt 0.500000 0.875581
vt 0.750000 0.875484
vt 0.750000 0.639325
vt 0.750000 0.070495
vt 0.750000 0.221845
vt 0.250000 0.415191
vt 0.750000 0.415191
vt 0.250000 0.221845
vt 0.250000 0.070495
vt 0.250000 0.639325
vt 0.250000 0.875484
vt 0.000000 0.000000
vt 1.000000 0.000000
vt 0.000000 1.000000
vt 1.000000 1.000000
vt 1.000000 0.750000
vt 0.000000 0.750000
vt 0.000000 0.527869
vt 1.000000 0.527869
vt 0.000000 0.300357
vt 1.000000 0.300357
vt 0.500000 0.000000
vt 0.500000 1.000000
vt 0.500000 0.754645
vt 0.500000 0.526972
vt 0.500000 0.311600
vt 0.750000 0.000000
vt 1.000000 0.875000
vt 0.250000 1.000000
vt 0.000000 0.875000
vt 0.250000 0.754258
vt 0.250000 0.527047
vt 0.000000 0.638935
vt 1.000000 0.638935
vt 0.000000 0.220331
vt 1.000000 0.220331
vt 0.250000 0.310663
vt 1.000000 0.414113
vt 0.000000 0.414113
vt 0.000000 0.070153
vt 1.000000 0.070153
vt 0.250000 0.000000
vt 0.750000 1.000000
vt 0.750000 0.754258
vt 0.750000 0.527047
vt 0.750000 0.310663
vt 0.500000 0.415406
vt 0.500000 0.222148
vt 0.500000 0.070564
vt 0.500000 0.639403
vt 0.500000 0.875581
vt 0.750000 0.875484
vt 0.750000 0.639325
vt 0.750000 0.070495
vt 0.750000 0.221845
vt 0.250000 0.415191
vt 0.750000 0.415191
vt 0.250000 0.221845
vt 0.250000 0.070495
vt 0.250000 0.639325
vt 0.250000 0.875484
s 0
usemtl M_PCL_Flat_Black
f 65/97/1 1/1/1 2/4/1 66/98/1
f 66/98/2 2/4/2 3/6/2 67/99/2
f 67/99/3 3/6/3 4/8/3 68/100/3
f 68/100/4 4/8/4 5/10/4 69/101/4
f 69/101/5 5/10/5 6/12/5 70/102/5
f 70/102/6 6/12/6 7/15/6 71/103/6
f 2/5/7 1/2/7 8/16/7 7/14/7 6/13/7 5/11/7 4/9/7 3/7/7
f 71/103/8 7/15/8 8/17/8 72/104/8
f 72/104/9 8/17/9 1/3/9 65/96/9
usemtl M_PCL_Flat_Grey_Darker
f 64/95/9 39/51/9 40/52/9 50/66/9
f 32/44/10 16/26/10 9/18/10 25/37/10
f 31/43/11 15/25/11 16/26/11 32/44/11
f 30/42/12 14/24/12 15/25/12 31/43/12
f 29/41/13 13/23/13 14/24/13 30/42/13
f 28/40/14 12/22/14 13/23/14 29/41/14
f 27/39/15 11/21/15 12/22/15 28/40/15
f 26/38/16 10/20/16 11/21/16 27/39/16
f 25/36/17 9/19/17 10/20/17 26/38/17
usemtl M_PCL_Flat_Red.Brick
f 82/116/1 73/105/1 17/27/1 42/56/1
f 42/56/2 17/27/2 18/28/2 43/57/2
f 43/57/3 18/28/3 19/29/3 44/58/3
f 44/58/4 19/29/4 20/30/4 45/59/4
f 45/59/5 20/30/5 21/31/5 46/60/5
f 46/60/6 21/31/6 22/32/6 47/61/6
f 47/61/8 22/32/8 23/33/8 48/62/8
f 48/62/9 23/33/9 73/106/9 82/115/9
usemtl M_PCL_Flat_Grey_Darker
f 24/34/18 25/36/18 26/38/18 74/107/18
f 74/107/19 26/38/19 27/39/19 75/108/19
f 75/108/20 27/39/20 28/40/20 76/109/20
f 76/109/21 28/40/21 29/41/21 77/110/21
f 77/110/22 29/41/22 30/42/22 78/111/22
f 78/111/23 30/42/23 31/43/23 79/112/23
f 79/112/24 31/43/24 32/44/24 80/113/24
f 80/113/25 32/44/25 25/37/25 24/35/25
f 52/71/2 33/45/2 34/46/2 54/75/2
f 62/91/8 38/50/8 39/51/8 64/95/8
f 60/87/6 37/49/6 38/50/6 62/91/6
f 58/83/5 36/48/5 37/49/5 60/87/5
f 56/79/4 35/47/4 36/48/4 58/83/4
f 54/75/3 34/46/3 35/47/3 56/79/3
f 49/63/26 51/68/26 53/72/26 55/76/26 57/80/26 59/84/26 61/88/26 63/92/26
f 39/51/27 81/114/27 41/54/27 40/52/27
f 38/50/28 83/117/28 81/114/28 39/51/28
f 37/49/29 84/118/29 83/117/29 38/50/29
f 36/48/30 85/119/30 84/118/30 37/49/30
f 35/47/31 86/120/31 85/119/31 36/48/31
f 34/46/32 87/121/32 86/120/32 35/47/32
f 33/45/33 88/122/33 87/121/33 34/46/33
f 40/53/34 41/55/34 88/122/34 33/45/34
f 50/67/35 52/71/35 51/69/35 49/64/35
f 52/71/36 54/75/36 53/73/36 51/70/36
f 54/75/37 56/79/37 55/77/37 53/74/37
f 56/79/38 58/83/38 57/81/38 55/78/38
f 58/83/39 60/87/39 59/85/39 57/82/39
f 60/87/40 62/91/40 61/89/40 59/86/40
f 62/91/41 64/95/41 63/93/41 61/90/41
f 64/95/42 50/66/42 49/65/42 63/94/42
f 50/67/1 40/53/1 33/45/1 52/71/1
f 16/26/9 72/104/9 65/96/9 9/18/9
f 15/25/8 71/103/8 72/104/8 16/26/8
f 14/24/6 70/102/6 71/103/6 15/25/6
f 13/23/5 69/101/5 70/102/5 14/24/5
f 12/22/4 68/100/4 69/101/4 13/23/4
f 11/21/3 67/99/3 68/100/3 12/22/3
f 10/20/2 66/98/2 67/99/2 11/21/2
f 9/19/1 65/97/1 66/98/1 10/20/1
f 17/27/1 73/105/1 24/34/1 74/107/1
f 18/28/2 17/27/2 74/107/2 75/108/2
f 19/29/3 18/28/3 75/108/3 76/109/3
f 20/30/4 19/29/4 76/109/4 77/110/4
f 21/31/5 20/30/5 77/110/5 78/111/5
f 22/32/6 21/31/6 78/111/6 79/112/6
f 23/33/8 22/32/8 79/112/8 80/113/8
f 73/106/9 23/33/9 80/113/9 24/35/9
f 48/62/9 82/115/9 41/54/9 81/114/9
f 47/61/8 48/62/8 81/114/8 83/117/8
f 46/60/6 47/61/6 83/117/6 84/118/6
f 45/59/5 46/60/5 84/118/5 85/119/5
f 44/58/4 45/59/4 85/119/4 86/120/4
f 43/57/3 44/58/3 86/120/3 87/121/3
f 42/56/2 43/57/2 87/121/2 88/122/2
f 82/116/1 42/56/1 88/122/1 41/55/1
usemtl M_PCL_Flat_Brown.Taupe
f 101/135/43 121/155/43 129/163/43 128/162/43
f 121/155/44 93/127/44 105/139/44 129/163/44
f 129/163/45 105/139/45 92/126/45 120/154/45
f 128/162/46 129/163/46 120/154/46 100/134/46
f 102/136/47 122/156/47 130/164/47 127/161/47
f 122/156/48 96/130/48 111/145/48 130/164/48
f 130/164/49 111/145/49 93/127/49 121/155/49
f 127/161/50 130/164/50 121/155/50 101/135/50
f 99/133/51 104/138/51 131/165/51 126/160/51
f 104/138/52 90/124/52 118/152/52 131/165/52
f 117/151/53 136/170/53 135/169/53 112/146/53
f 113/147/54 132/166/54 131/165/54 118/152/54
f 132/166/55 113/147/55 98/132/55 123/157/55
f 125/159/56 132/166/56 123/157/56 103/137/56
f 102/136/57 109/143/57 133/167/57 124/158/57
f 109/143/58 95/129/58 116/150/58 133/167/58
f 133/167/59 116/150/59 97/131/59 114/148/59
f 124/158/60 133/167/60 114/148/60 103/137/60
f 96/130/61 122/156/61 134/168/61 115/149/61
f 122/156/62 102/136/62 124/158/62 134/168/62
f 134/168/63 124/158/63 103/137/63 123/157/63
f 115/149/64 134/168/64 123/157/64 98/132/64
f 136/170/65 126/160/65 125/159/65 135/169/65
f 175/209/66 182/216/66 181/215/66 176/210/66
f 135/169/67 125/159/67 103/137/67 114/148/67
f 112/146/68 135/169/68 114/148/68 97/131/68
f 89/123/69 119/153/69 136/170/69 117/151/69
f 119/153/70 99/133/70 126/160/70 136/170/70
f 95/129/71 109/143/71 137/171/71 110/144/71
f 109/143/72 102/136/72 127/161/72 137/171/72
f 137/171/73 127/161/73 101/135/73 108/142/73
f 110/144/74 137/171/74 108/142/74 94/128/74
f 94/128/75 108/142/75 138/172/75 107/141/75
f 108/142/76 101/135/76 128/162/76 138/172/76
f 138/172/77 128/162/77 100/134/77 106/140/77
f 107/141/78 138/172/78 106/140/78 91/125/78
f 151/185/79 178/212/79 179/213/79 171/205/79
f 171/205/80 179/213/80 155/189/80 143/177/80
f 179/213/81 170/204/81 142/176/81 155/189/81
f 178/212/82 150/184/82 170/204/82 179/213/82
f 152/186/83 177/211/83 180/214/83 172/206/83
f 172/206/84 180/214/84 161/195/84 146/180/84
f 180/214/85 171/205/85 143/177/85 161/195/85
f 177/211/86 151/185/86 171/205/86 180/214/86
f 149/183/87 176/210/87 181/215/87 154/188/87
f 154/188/88 181/215/88 168/202/88 140/174/88
f 167/201/89 162/196/89 185/219/89 186/220/89
f 181/215/90 182/216/90 163/197/90 168/202/90
f 182/216/91 173/207/91 148/182/91 163/197/91
f 175/209/92 153/187/92 173/207/92 182/216/92
f 152/186/93 174/208/93 183/217/93 159/193/93
f 159/193/94 183/217/94 166/200/94 145/179/94
f 183/217/95 164/198/95 147/181/95 166/200/95
f 174/208/96 153/187/96 164/198/96 183/217/96
f 146/180/97 165/199/97 184/218/97 172/206/97
f 172/206/98 184/218/98 174/208/98 152/186/98
f 184/218/99 173/207/99 153/187/99 174/208/99
f 165/199/100 148/182/100 173/207/100 184/218/100
f 186/220/101 185/219/101 175/209/101 176/210/101
f 117/151/102 112/146/102 162/196/102 167/201/102
f 185/219/103 164/198/103 153/187/103 175/209/103
f 162/196/104 147/181/104 164/198/104 185/219/104
f 139/173/105 167/201/105 186/220/105 169/203/105
f 169/203/106 186/220/106 176/210/106 149/183/106
f 145/179/107 160/194/107 187/221/107 159/193/107
f 159/193/108 187/221/108 177/211/108 152/186/108
f 187/221/109 158/192/109 151/185/109 177/211/109
f 160/194/110 144/178/110 158/192/110 187/221/110
f 144/178/111 157/191/111 188/222/111 158/192/111
f 158/192/112 188/222/112 178/212/112 151/185/112
f 188/222/113 156/190/113 150/184/113 178/212/113
f 157/191/114 141/175/114 156/190/114 188/222/114
f 104/138/115 99/133/115 149/183/115 154/188/115
f 90/124/116 104/138/116 154/188/116 140/174/116
f 105/139/117 93/127/117 143/177/117 155/189/117
f 92/126/118 105/139/118 155/189/118 142/176/118
f 106/140/119 100/134/119 150/184/119 156/190/119
f 91/125/120 106/140/120 156/190/120 141/175/120
f 107/141/121 91/125/121 141/175/121 157/191/121
f 94/128/122 107/141/122 157/191/122 144/178/122
f 110/144/123 94/128/123 144/178/123 160/194/123
f 95/129/124 110/144/124 160/194/124 145/179/124
f 111/145/125 96/130/125 146/180/125 161/195/125
f 93/127/126 111/145/126 161/195/126 143/177/126
f 112/146/127 97/131/127 147/181/127 162/196/127
f 113/147/128 118/152/128 168/202/128 163/197/128
f 98/132/129 113/147/129 163/197/129 148/182/129
f 115/149/130 98/132/130 148/182/130 165/199/130
f 96/130/131 115/149/131 165/199/131 146/180/131
f 116/150/132 95/129/132 145/179/132 166/200/132
f 97/131/133 116/150/133 166/200/133 147/181/133
f 89/123/134 117/151/134 167/201/134 139/173/134
f 118/152/135 90/124/135 140/174/135 168/202/135
f 119/153/136 89/123/136 139/173/136 169/203/136
f 99/133/137 119/153/137 169/203/137 149/183/137
f 120/154/138 92/126/138 142/176/138 170/204/138
f 100/134/139 120/154/139 170/204/139 150/184/139
f 131/165/140 132/166/140 125/159/140 126/160/140
